<?xml version="1.0" standalone="no"?>
<!DOCTYPE svg PUBLIC "-//W3C//DTD SVG 20010904//EN"
 "http://www.w3.org/TR/2001/REC-SVG-20010904/DTD/svg10.dtd">
<svg version="1.0" xmlns="http://www.w3.org/2000/svg"
 width="685.000000pt" height="449.000000pt" viewBox="0 0 685.000000 449.000000"
 preserveAspectRatio="xMidYMid meet">
<metadata>
Created by potrace 1.16, written by Peter Selinger 2001-2019
</metadata>
<g transform="translate(0.000000,449.000000) scale(0.100000,-0.100000)"
fill="#000000" stroke="none">
<path d="M3350 4409 c-113 -43 -270 -103 -349 -132 -80 -28 -137 -53 -128 -55
9 -2 32 4 49 13 l33 16 337 -167 337 -168 166 71 c120 52 165 67 160 55 -4 -9
-12 -30 -17 -47 -16 -46 -21 -49 -123 -90 l-95 -39 72 -33 c39 -19 73 -35 75
-36 5 -6 -21 -77 -29 -77 -4 0 -54 23 -110 51 l-103 51 -198 -83 -197 -84 247
-123 c137 -68 249 -128 251 -133 2 -5 -1 -24 -7 -42 l-11 -33 -288 145 -287
144 -305 -130 c-168 -72 -312 -133 -320 -136 -12 -4 -11 -6 5 -13 11 -4 212
-113 446 -241 235 -128 433 -233 441 -233 8 0 50 17 94 39 l80 38 -20 -58
c-16 -45 -26 -59 -46 -64 -23 -6 -24 -7 -7 -20 16 -12 17 -18 6 -53 l-12 -40
-49 29 -49 29 -386 -180 c-213 -99 -390 -180 -395 -180 -25 0 18 -31 265 -190
300 -193 322 -202 369 -155 30 30 29 27 131 323 l74 212 -191 1 c-171 1 -187
2 -151 14 22 7 94 38 160 69 l120 57 36 -20 c55 -31 85 -28 98 10 6 18 11 39
11 47 0 9 9 35 21 59 12 24 23 61 26 83 5 37 4 40 -18 40 -13 0 -53 -14 -87
-30 -35 -17 -71 -30 -79 -30 -23 0 -833 444 -825 452 4 4 130 60 281 124 l274
117 273 -136 c151 -75 285 -137 298 -137 18 0 27 8 35 31 27 79 32 74 -210
194 -121 61 -222 113 -225 116 -2 3 69 37 157 74 l161 69 94 -47 c117 -58 138
-60 159 -10 24 57 17 75 -40 102 l-50 24 65 28 c36 16 71 33 79 37 15 9 49 93
50 125 2 31 -50 20 -194 -43 -76 -33 -147 -60 -157 -60 -19 0 -608 291 -608
300 0 7 561 220 578 220 6 0 98 -58 204 -130 108 -73 201 -130 214 -130 18 0
26 8 35 40 l12 40 287 0 286 0 109 -330 c98 -300 111 -333 138 -352 17 -12 25
-24 19 -26 -15 -5 -16 -61 -2 -96 12 -32 45 -34 101 -6 l40 21 320 -217 c176
-119 319 -218 317 -219 -2 -2 -35 7 -73 20 -93 31 -240 49 -337 40 -77 -6 -78
-6 -78 17 0 19 -13 30 -75 61 -77 38 -109 45 -120 27 -9 -15 24 -112 43 -127
14 -11 13 -13 -6 -13 -12 0 -22 5 -22 11 0 19 -372 1153 -383 1167 -7 9 -75
12 -278 12 -251 0 -269 -1 -278 -19 -6 -10 -177 -505 -380 -1100 -204 -596
-380 -1094 -391 -1109 -39 -48 -60 -57 -160 -62 -90 -5 -94 -6 -101 -30 -9
-31 -11 -257 -3 -288 l6 -22 452 2 451 3 0 165 0 165 -95 3 c-157 5 -161 23
-63 290 l68 182 227 0 c126 0 228 -3 228 -7 0 -4 -5 -22 -12 -40 -13 -35 -34
-46 -25 -13 4 17 0 20 -23 20 -16 0 -32 5 -35 10 -3 6 -49 10 -101 10 -61 0
-93 -4 -89 -10 3 -5 42 -10 86 -10 69 0 121 -12 147 -35 2 -2 -2 -21 -9 -43
l-12 -41 -113 60 c-109 58 -115 60 -179 57 l-67 -3 -59 -160 c-32 -88 -59
-175 -59 -192 l0 -33 93 0 92 0 132 76 c130 76 131 77 137 118 7 45 21 74 31
64 10 -10 -17 -117 -29 -115 -5 1 -16 -20 -23 -48 -14 -56 -21 -63 -127 -123
l-76 -42 0 -175 0 -175 -69 0 c-38 0 -84 7 -104 15 -40 16 -142 20 -151 6 -9
-14 20 -21 87 -21 l62 -1 204 -132 c112 -73 207 -139 211 -147 4 -8 26 -54 49
-101 110 -231 337 -460 559 -565 155 -73 310 -107 497 -107 204 0 363 38 531
127 l84 45 0 -145 0 -144 -135 0 -135 0 0 -200 0 -200 565 0 565 0 0 200 0
200 -115 0 -115 0 0 585 1 585 114 0 115 0 0 210 0 210 -84 0 c-89 0 -96 4
-96 53 0 23 -45 127 -54 127 -3 0 3 -24 14 -52 11 -29 20 -64 19 -78 0 -22 -3
-20 -19 15 -10 22 -19 52 -19 67 -1 15 -5 30 -11 33 -5 3 -10 17 -10 31 0 44
-89 112 -186 140 -175 51 -357 -34 -437 -204 -28 -60 -32 -76 -31 -152 2 -156
75 -275 212 -342 60 -30 75 -33 157 -33 76 0 99 4 147 27 111 52 197 159 216
268 l7 45 73 3 72 3 0 -161 0 -160 -125 0 -125 0 0 -635 0 -635 125 0 125 0 0
-160 0 -160 -525 0 -524 0 -3 160 -3 160 138 0 137 0 0 201 0 200 -27 -4 c-16
-3 -55 -21 -88 -41 -75 -45 -190 -90 -303 -118 -70 -17 -118 -22 -242 -22
-163 0 -221 8 -355 51 -159 51 -304 143 -434 273 -305 307 -411 710 -312 1191
86 417 272 692 581 858 167 89 341 127 553 118 209 -8 355 -65 480 -189 l68
-67 -2 87 -2 87 79 11 c43 6 104 14 134 18 l56 7 3 -73 c1 -40 8 -156 15 -258
8 -102 13 -185 12 -186 -5 -4 -337 -104 -345 -104 -5 0 -51 38 -102 84 -130
120 -225 167 -362 181 -76 8 -184 -13 -256 -49 -67 -34 -177 -140 -220 -210
-97 -161 -165 -523 -141 -752 18 -177 81 -318 197 -444 144 -156 293 -206 543
-181 221 22 328 59 412 139 l58 55 0 203 0 204 -582 2 -583 3 1 140 c3 304 81
566 208 698 50 52 103 94 110 86 2 -2 43 -124 90 -270 76 -235 90 -270 121
-302 l36 -37 239 0 c148 0 240 4 240 10 0 5 -47 11 -107 13 l-108 3 108 2 c63
1 107 6 107 12 0 6 -79 10 -218 10 -238 0 -247 2 -277 60 l-15 29 154 112 153
111 -227 113 c-178 89 -229 118 -233 136 -8 28 -3 35 28 43 19 5 80 -21 266
-114 225 -113 242 -120 263 -106 19 13 23 12 51 -14 l30 -29 204 65 c113 35
205 65 206 67 3 4 -37 592 -41 596 -3 3 -217 -21 -316 -36 -37 -5 -38 -7 -38
-49 l0 -43 -77 53 c-43 29 -228 155 -411 279 l-334 226 -58 -28 -59 -28 -15
43 -14 43 31 10 c26 10 33 8 49 -9 10 -11 26 -20 35 -20 22 0 13 7 -72 62
l-70 44 -110 337 -110 337 -304 -3 -304 -2 -14 -39 c-7 -22 -15 -41 -17 -43
-2 -2 -89 55 -195 127 -164 111 -197 130 -229 129 -21 0 -125 -35 -242 -80z
m1309 -301 c27 -84 111 -342 186 -573 76 -231 138 -424 139 -428 0 -4 -22 -16
-51 -27 -121 -43 -256 -124 -338 -202 l-41 -38 -129 408 c-71 224 -134 427
-141 452 -7 27 -14 39 -17 30 -3 -8 -80 -226 -170 -485 l-164 -470 275 -5
c243 -4 273 -7 258 -20 -27 -22 -89 -116 -130 -197 l-36 -73 -233 0 -232 0
-70 -188 c-78 -210 -86 -265 -46 -305 19 -20 32 -22 116 -22 l95 0 0 -147 0
-148 -435 0 -435 0 0 149 0 149 39 -5 c22 -3 65 -2 96 2 64 8 114 44 144 104
10 20 184 521 386 1114 l368 1077 258 0 258 0 50 -152z m-274 -813 c59 -187
116 -368 126 -402 14 -44 25 -63 36 -63 12 0 8 -10 -18 -36 -25 -26 -35 -31
-37 -20 -3 14 -36 16 -263 16 -218 0 -260 2 -257 14 13 56 294 843 299 838 4
-4 55 -160 114 -347z m1100 -639 c84 -23 161 -65 240 -132 69 -60 89 -84 66
-84 -5 0 -31 20 -57 43 -27 24 -69 58 -93 75 -42 31 -48 32 -142 32 -56 0
-101 4 -104 10 -4 6 -32 24 -63 40 l-57 29 80 0 c44 1 103 -5 130 -13z m-291
-61 c4 -19 15 -39 26 -45 24 -13 140 -369 140 -430 0 -26 8 -54 21 -73 l21
-32 -26 30 c-19 21 -52 108 -113 298 -64 196 -91 267 -103 267 -13 0 -13 1 0
10 23 15 27 12 34 -25z m-1774 -35 c0 -5 -34 -110 -76 -232 -80 -235 -106
-284 -150 -275 -33 6 -526 329 -517 338 4 4 91 46 193 93 l185 86 183 0 c114
0 182 -4 182 -10z m2031 -136 l171 -85 -113 -84 c-63 -46 -117 -84 -121 -85
-3 0 -30 71 -59 158 -28 86 -54 163 -57 170 -2 6 -1 12 2 12 3 0 83 -39 177
-86z m-1359 -75 c124 -68 118 -62 104 -110 -11 -37 -20 -44 -141 -114 -129
-74 -131 -75 -202 -75 -63 0 -73 2 -73 18 0 9 25 88 57 175 l57 157 53 0 c45
0 67 -8 145 -51z m2206 -1 c22 -17 29 -110 7 -102 -7 3 -11 12 -9 19 6 15 -52
75 -72 75 -6 0 -32 -10 -56 -22 -54 -28 -52 -27 -46 -34 4 -3 20 2 36 10 29
15 31 15 29 -4 -1 -11 -6 -20 -13 -20 -6 0 -16 -6 -22 -13 -8 -10 -4 -20 18
-41 l30 -28 1 24 c1 12 1 31 0 41 -2 19 14 23 24 6 4 -5 12 -8 18 -6 15 5 67
-20 67 -33 0 -6 7 -10 15 -10 8 0 15 -4 15 -10 0 -5 -9 -10 -20 -10 -11 0 -20
6 -20 14 0 8 -5 18 -12 22 -7 4 -8 3 -4 -4 4 -7 1 -12 -6 -12 -20 0 -54 -27
-46 -36 4 -4 13 -2 20 3 7 6 22 7 33 3 19 -7 19 -8 -5 -18 -14 -5 -31 -23 -39
-38 -7 -16 -17 -37 -22 -46 -6 -13 -4 -16 11 -15 10 1 17 5 14 9 -3 4 4 16 16
28 11 11 20 16 20 11 0 -10 7 -9 51 3 32 9 49 43 38 74 -6 15 -5 21 1 17 19
-12 10 45 -11 66 -17 17 -19 23 -8 30 20 12 59 11 59 -2 0 -5 -4 -7 -10 -4 -5
3 -10 -3 -10 -14 0 -14 6 -21 20 -21 12 0 20 6 19 13 -3 28 2 48 11 42 13 -8
13 -55 -1 -55 -6 0 -8 -9 -4 -20 4 -11 2 -20 -4 -20 -6 0 -11 7 -11 15 0 8 -4
15 -10 15 -5 0 -10 -19 -10 -42 0 -56 -36 -116 -67 -113 -14 1 -25 -5 -28 -15
-6 -18 -79 -45 -95 -35 -11 7 -12 3 -4 -19 3 -8 12 -12 20 -9 8 3 14 -1 14 -8
1 -10 4 -9 10 3 6 9 23 19 39 23 16 3 35 13 42 21 6 8 17 14 23 14 16 0 53 51
62 84 3 14 10 26 15 26 5 0 9 9 9 20 0 18 10 25 32 21 4 0 3 11 -2 25 -13 33
-13 34 5 28 8 -4 15 -12 15 -20 0 -7 8 -19 18 -26 19 -14 21 -26 9 -45 -5 -8
-3 -13 6 -13 8 0 18 -12 22 -27 3 -15 15 -45 26 -67 23 -48 17 -76 -16 -76
-13 0 -25 3 -28 8 -2 4 -2 1 -1 -5 2 -7 -3 -13 -11 -13 -12 0 -14 11 -11 55 2
30 0 55 -5 55 -5 0 -9 -13 -9 -30 0 -16 -4 -30 -9 -30 -6 0 -6 -12 -1 -30 5
-16 6 -30 4 -30 -17 0 -44 23 -44 38 0 11 -3 13 -8 6 -4 -7 -17 -14 -30 -15
-30 -5 -24 -25 6 -21 15 2 21 -1 17 -7 -4 -7 4 -11 20 -11 15 0 35 -5 46 -10
15 -8 23 -7 35 5 8 8 24 15 34 15 10 0 22 9 25 20 3 11 13 20 21 20 11 0 12
-5 6 -17 -5 -10 -7 -24 -5 -30 3 -7 -2 -13 -11 -13 -8 0 -36 -11 -62 -25 -52
-28 -64 -31 -46 -13 19 19 14 26 -22 30 -29 3 -33 1 -26 -13 8 -13 5 -15 -15
-11 -14 2 -25 8 -25 12 0 5 -8 7 -17 5 -10 -1 -17 -7 -16 -13 2 -6 -8 -7 -25
-2 -15 4 -26 13 -24 19 1 8 -4 10 -15 7 -47 -14 -78 -17 -64 -7 12 8 9 11 -15
16 -47 11 -51 13 -21 14 16 1 26 5 22 11 -4 6 -11 8 -16 5 -5 -4 -9 -2 -9 4 0
6 -15 5 -40 -4 -22 -8 -42 -10 -45 -5 -3 5 13 14 35 20 42 11 54 30 20 30 -11
0 -20 -5 -20 -11 0 -6 -6 -9 -12 -7 -7 3 -13 11 -13 19 0 8 -4 14 -10 14 -5 0
-9 -4 -7 -9 1 -4 -2 -23 -8 -41 -13 -39 -4 -65 21 -65 17 0 24 11 20 33 -2 14
20 7 25 -8 4 -8 15 -15 26 -15 17 0 18 -3 8 -15 -11 -13 -8 -15 14 -15 15 0
36 4 46 10 15 8 17 6 13 -10 -3 -13 -14 -20 -29 -20 -32 0 -39 -17 -9 -23 18
-3 29 1 35 14 8 14 21 17 69 16 33 -1 63 -5 66 -9 4 -4 16 -3 26 3 14 7 23 5
39 -11 17 -17 28 -19 56 -14 35 6 36 6 29 -17 -4 -13 -11 -28 -16 -33 -5 -6
-9 -20 -9 -32 0 -25 -65 -72 -93 -66 -12 2 -15 7 -8 15 7 9 -2 12 -34 10 -27
-1 -48 4 -55 12 -9 11 -7 12 9 8 12 -3 21 -1 21 5 0 14 -78 20 -92 7 -8 -7 -9
-3 -5 14 4 17 3 21 -5 13 -11 -11 -4 -43 9 -41 21 4 33 -2 33 -16 0 -8 3 -14
8 -13 4 1 19 -2 34 -6 24 -7 27 -12 22 -35 -13 -51 -34 -59 -34 -12 0 22 -6
31 -22 37 -13 3 -31 13 -41 22 -30 27 -114 23 -103 -4 6 -17 -6 -18 -21 -3 -6
6 -17 9 -24 7 -8 -3 1 -12 20 -21 43 -21 44 -21 38 3 -4 17 0 20 32 20 22 0
50 -10 74 -25 41 -28 47 -45 17 -45 -11 0 -20 -7 -20 -16 0 -45 -210 35 -272
104 -45 50 -81 118 -72 135 4 7 3 8 -2 4 -5 -5 -13 11 -19 39 -12 55 -2 172
16 188 9 8 10 8 5 -1 -5 -8 -1 -13 10 -13 16 0 16 -1 -2 -15 -10 -8 -14 -15
-7 -15 7 0 10 -7 7 -15 -4 -8 -10 -12 -15 -9 -5 3 -9 0 -9 -5 0 -17 28 -13 38
5 11 20 27 1 18 -22 -6 -17 13 -66 31 -77 7 -4 13 -15 13 -23 0 -8 -5 -12 -11
-9 -6 4 -10 1 -8 -6 3 -29 -2 -39 -20 -39 -11 0 -22 6 -24 13 -4 7 -6 8 -6 1
-1 -6 6 -17 14 -24 8 -7 15 -10 15 -7 0 4 17 0 39 -8 29 -10 42 -10 50 -2 9 9
14 9 20 -1 4 -6 30 -13 57 -15 74 -4 106 -31 39 -33 -19 0 -35 3 -35 8 0 5 -5
6 -10 3 -6 -4 -16 -2 -23 3 -7 5 -21 6 -32 1 -11 -4 -15 -8 -8 -8 6 -1 24 -6
40 -13 15 -6 37 -13 48 -14 11 -2 33 -6 48 -9 24 -4 27 -2 22 14 -3 11 -1 22
5 26 15 9 12 32 -5 39 -13 4 -14 2 -5 -14 15 -29 1 -24 -29 9 -33 36 -131 82
-131 61 0 -6 -7 -10 -15 -10 -9 0 -12 -6 -8 -16 4 -11 2 -15 -7 -12 -7 2 -15
13 -16 25 -3 16 3 23 24 29 20 5 23 8 10 11 -10 3 -18 14 -18 25 0 14 -5 18
-15 14 -16 -6 -40 28 -30 43 3 5 0 21 -7 36 -9 20 -9 34 2 63 7 20 15 57 17
82 4 45 25 80 50 80 8 0 11 -4 8 -10 -3 -5 -2 -10 4 -10 7 0 7 -8 -1 -25 -8
-18 -17 -24 -30 -19 -10 3 -18 1 -18 -4 0 -5 15 -13 34 -16 29 -6 47 -22 50
-48 3 -18 16 -18 16 0 0 12 5 22 11 22 5 0 7 -4 4 -10 -3 -5 -1 -10 5 -10 7 0
9 -9 5 -22 -6 -22 -6 -22 9 -4 14 18 21 15 17 -7 -1 -4 8 -2 19 5 11 7 16 14
10 16 -6 2 -8 7 -6 11 3 4 -5 7 -17 7 -13 -1 -23 5 -23 14 -1 8 -2 19 -3 25 0
5 -6 4 -13 -3 -19 -19 -31 -14 -24 11 4 16 -1 28 -14 40 -19 16 -29 54 -11 43
4 -3 17 4 27 16 19 21 19 21 -4 9 -13 -7 -26 -10 -30 -7 -8 8 -3 11 48 28 60
19 137 22 158 6z m-2109 -404 c-19 -181 3 -436 50 -556 8 -22 8 -28 -3 -28
-26 0 -63 153 -76 311 -13 162 10 412 36 386 3 -3 0 -54 -7 -113z m-49 -40
c-12 -127 -5 -250 21 -388 10 -55 17 -101 15 -103 -2 -2 -66 37 -142 86 l-139
91 45 0 c26 0 51 5 58 12 8 8 12 61 12 175 l0 162 68 40 c37 21 68 38 69 37 2
-1 -2 -51 -7 -112z m1810 -462 l0 -169 -36 -37 c-64 -66 -167 -104 -344 -126
-185 -22 -293 -10 -402 47 -142 74 -279 258 -313 421 l-7 32 551 0 551 0 0
-168z"/>
<path d="M4220 3262 c-93 -46 -95 -48 -111 -97 -25 -72 -24 -85 6 -85 14 0 88
-31 165 -70 77 -38 152 -70 166 -70 25 0 26 2 22 38 -11 79 -31 108 -97 137
-34 15 -61 31 -61 35 0 4 18 15 40 25 44 20 48 32 29 98 -8 31 -14 37 -37 37
-15 -1 -70 -22 -122 -48z m149 -38 c1 -6 -29 -25 -65 -41 l-67 -30 91 -42 90
-43 19 -59 c11 -33 17 -58 14 -57 -3 2 -74 38 -156 80 -115 58 -155 74 -168
67 -21 -12 -21 -14 2 50 18 53 18 53 117 100 l99 48 12 -31 c6 -17 12 -36 12
-42z"/>
<path d="M2740 4178 c-41 -17 -151 -59 -245 -94 -93 -34 -300 -113 -460 -174
-159 -61 -319 -121 -354 -133 -35 -11 -59 -23 -51 -25 7 -3 29 1 50 8 l39 13
340 -187 c187 -102 346 -186 353 -186 7 0 144 56 305 125 160 69 296 125 302
125 6 0 11 3 10 8 0 4 -159 85 -352 181 -220 109 -344 176 -332 178 11 2 36
11 56 19 l36 16 341 -171 c188 -94 348 -171 356 -171 8 0 92 33 188 74 95 40
181 76 191 80 13 4 -84 57 -323 176 -187 93 -348 170 -358 169 -9 -1 -51 -15
-92 -31z m420 -153 c241 -121 301 -155 285 -161 -11 -4 -85 -36 -164 -70
l-145 -62 -319 159 c-176 88 -317 162 -315 164 11 11 315 124 333 124 11 0
157 -69 325 -154z m-510 -199 l325 -164 -35 -14 c-19 -8 -143 -61 -275 -118
-132 -57 -245 -103 -250 -103 -16 0 -645 346 -639 352 5 5 535 210 544 210 3
0 151 -74 330 -163z"/>
<path d="M1275 3621 c-170 -64 -345 -131 -387 -147 -594 -225 -888 -340 -887
-349 0 -8 450 -355 707 -545 87 -64 807 -610 840 -636 24 -20 31 -22 26 -10
-4 10 -18 22 -33 28 l-26 10 35 18 c19 10 222 104 450 210 228 106 418 196
423 200 4 3 -61 50 -145 104 -84 53 -273 176 -421 271 l-267 174 -431 -184
c-236 -102 -434 -185 -440 -185 -5 0 -12 7 -16 16 -3 8 -17 20 -32 26 l-26 10
35 18 c46 23 778 336 809 345 23 7 23 8 5 18 -40 22 -640 410 -654 423 -12 12
-11 14 11 14 13 0 35 7 47 16 22 15 25 14 60 -8 436 -285 635 -410 650 -406
23 7 685 290 694 297 7 6 -693 391 -709 391 -4 -1 -147 -54 -318 -119z m634
-78 c168 -91 314 -172 324 -178 15 -11 -27 -32 -300 -149 -175 -75 -324 -136
-331 -136 -18 0 -613 387 -611 397 3 9 574 231 598 232 8 1 152 -74 320 -166z
m-771 -333 c166 -107 302 -197 302 -200 0 -6 -781 -341 -793 -340 -10 0 -591
439 -595 449 -4 11 761 300 774 292 6 -3 147 -94 312 -201z m687 -445 c123
-79 239 -151 257 -159 29 -13 -42 -14 -627 -14 -577 0 -654 2 -615 14 25 8
200 81 390 163 190 82 351 147 358 145 7 -2 114 -69 237 -149z m425 -276 c102
-67 121 -83 107 -91 -80 -44 -834 -388 -844 -384 -9 4 -631 471 -723 543 -12
10 128 12 660 13 l675 0 125 -81z"/>
<path d="M2065 3154 c-181 -79 -343 -148 -359 -154 l-29 -10 84 -53 c46 -29
184 -118 306 -198 377 -244 448 -289 459 -289 5 0 102 43 215 96 112 52 284
132 381 177 98 45 177 84 177 87 0 6 -878 484 -893 487 -6 1 -159 -63 -341
-143z m764 -114 c226 -123 411 -227 411 -230 -1 -3 -40 -23 -88 -45 -48 -21
-151 -70 -228 -107 l-141 -68 -231 0 c-186 0 -233 3 -239 14 -4 7 -136 96
-292 197 -283 183 -284 183 -255 196 137 63 632 272 641 270 6 -1 196 -103
422 -227z m-119 -475 c0 -5 -170 -85 -182 -85 -10 0 -138 80 -138 86 0 2 72 4
160 4 88 0 160 -2 160 -5z"/>
<path d="M2290 2243 c-124 -58 -330 -154 -458 -213 -128 -59 -232 -112 -231
-116 2 -5 163 -130 358 -278 196 -148 402 -304 459 -347 l103 -79 347 200 347
200 67 0 c70 0 98 6 98 21 0 14 -131 10 -175 -6 -23 -9 -77 -15 -129 -15 l-89
0 6 98 c4 53 7 146 7 207 0 85 3 106 12 97 14 -14 144 -17 152 -3 7 11 -43 21
-106 21 -47 0 -62 8 -286 153 -131 84 -241 156 -247 159 -5 3 -111 -41 -235
-99z m509 -110 l173 -113 -1 -188 c-1 -107 2 -199 8 -214 9 -25 15 -27 75 -30
l65 -3 -296 -169 c-248 -143 -298 -168 -313 -158 -35 21 -855 644 -858 651 -1
3 192 97 430 207 l431 202 56 -36 c31 -20 134 -87 230 -149z"/>
<path d="M2991 1384 l-393 -226 -19 21 c-11 12 -25 21 -31 21 -8 0 -8 -3 -3
-9 27 -23 748 -563 760 -567 7 -3 197 129 421 293 225 165 431 314 457 332 27
18 45 36 41 39 -4 4 -9 1 -11 -5 -3 -7 -10 -13 -17 -13 -7 0 -131 77 -276 170
l-263 170 -136 0 -137 0 -393 -226z m898 44 c138 -90 250 -166 248 -170 -1 -3
-187 -142 -414 -308 l-412 -301 -313 237 c-172 130 -321 244 -331 253 -17 16
3 29 355 233 l373 216 122 1 122 1 250 -162z"/>
</g>
</svg>
